<svg xmlns="http://www.w3.org/2000/svg" xmlns:xlink="http://www.w3.org/1999/xlink" width="132.935" height="44.438" viewBox="0 0 132.935 44.438">
  <defs>
    <linearGradient id="linear-gradient" x1="0.193" y1="0.087" x2="0.667" y2="0.943" gradientUnits="objectBoundingBox">
      <stop offset="0" stop-color="#77b243"/>
      <stop offset="1" stop-color="#00b3ba"/>
    </linearGradient>
  </defs>
  <g id="组_24537" data-name="组 24537" transform="translate(-7846 3340)">
    <path id="联合_1" data-name="联合 1" d="M15.567,43.6l-2.961-2.96a2.861,2.861,0,0,1,0-4.053l2.961-2.963a4.3,4.3,0,0,0,0-6.416l-2.961-2.959a2.851,2.851,0,0,1-.842-2.029h0a2.851,2.851,0,0,1,.842-2.027l2.961-2.959a4.3,4.3,0,0,0,0-6.417L12.607,7.855a2.862,2.862,0,0,1,0-4.054L15.567.841a2.864,2.864,0,0,1,4.055,0L22.578,3.8a2.858,2.858,0,0,1,0,4.054l-2.956,2.959a4.3,4.3,0,0,0,0,6.417l2.956,2.959a2.847,2.847,0,0,1,.843,2.027h0a2.847,2.847,0,0,1-.843,2.029l-2.956,2.959a4.3,4.3,0,0,0,0,6.416l2.956,2.96a2.861,2.861,0,0,1,0,4.056L19.622,43.6a2.87,2.87,0,0,1-4.055,0Zm11.763-8.2-2.958-2.959a2.869,2.869,0,0,1,0-4.057l2.958-2.959a4.3,4.3,0,0,0,0-6.415l-2.958-2.961a2.866,2.866,0,0,1,0-4.055l2.958-2.959a2.863,2.863,0,0,1,4.054,0L34.343,12a2.854,2.854,0,0,1,0,4.055l-2.959,2.961a4.3,4.3,0,0,0,0,6.415l2.959,2.959a2.862,2.862,0,0,1,0,4.057L31.385,35.4a2.869,2.869,0,0,1-4.054,0ZM3.8,35.4.84,32.444a2.87,2.87,0,0,1,0-4.057L3.8,25.427a4.3,4.3,0,0,0,0-6.415L.84,16.051A2.868,2.868,0,0,1,.84,12L3.8,9.037a2.863,2.863,0,0,1,4.054,0L10.814,12a2.87,2.87,0,0,1,0,4.055L7.853,19.012a4.3,4.3,0,0,0,0,6.415l2.961,2.959a2.872,2.872,0,0,1,0,4.057L7.855,35.4a2.871,2.871,0,0,1-4.056,0Z" transform="translate(7846 -3340)" fill="url(#linear-gradient)"/>
    <g id="组_24536" data-name="组 24536" transform="translate(8842.043 -3797.887)">
      <path id="路径_25645" data-name="路径 25645" d="M-912.3,501.263a.96.96,0,0,0-.375.565.968.968,0,0,0,.151.777l.5.8a.641.641,0,0,1,.081.488.646.646,0,0,1-.286.4l-.8.5a.635.635,0,0,1-.487.08.631.631,0,0,1-.4-.286l-.5-.8a.641.641,0,0,1-.081-.485.639.639,0,0,1,.286-.4l.8-.5a.972.972,0,0,0,.477-.631.945.945,0,0,0-.088-.672c-.065,0-.132-.01-.2-.01a2.511,2.511,0,0,0-2.511,2.51,2.513,2.513,0,0,0,2.511,2.51,2.512,2.512,0,0,0,2.511-2.51,2.512,2.512,0,0,0-1.591-2.334" transform="translate(-25.528 -13.731)" fill="#171c61"/>
      <path id="路径_25646" data-name="路径 25646" d="M-897.782,501.519v4.592h-.543v-4.592h-1.84v-.433h4.222v.433Z" transform="translate(-30.475 -13.731)" fill="#171c61"/>
      <path id="路径_25647" data-name="路径 25647" d="M-893.241,506.111v-5.025h3.452v.428h-2.922v1.8h2.7v.415h-2.7v1.953h3.072v.426Z" transform="translate(-32.676 -13.731)" fill="#171c61"/>
      <path id="路径_25648" data-name="路径 25648" d="M-876.4,506.111V503.7h-3.233v2.415h-.532v-5.025h.532v2.178h3.233v-2.178h.534v5.025Z" transform="translate(-36.83 -13.731)" fill="#171c61"/>
      <path id="路径_25649" data-name="路径 25649" d="M-883.595,504.875c-.035.057-.073.113-.117.169a1.793,1.793,0,0,1-.348.336,1.659,1.659,0,0,1-.471.245,1.83,1.83,0,0,1-.6.092,1.984,1.984,0,0,1-.815-.16,1.607,1.607,0,0,1-.583-.451,1.932,1.932,0,0,1-.348-.69,3.024,3.024,0,0,1-.119-.88,3.317,3.317,0,0,1,.108-.877,1.725,1.725,0,0,1,.33-.671,1.5,1.5,0,0,1,.57-.43,2.047,2.047,0,0,1,.827-.154,1.936,1.936,0,0,1,.57.078,1.588,1.588,0,0,1,.439.2,1.53,1.53,0,0,1,.321.283c.039.05.075.1.109.15h.579a2.3,2.3,0,0,0-.261-.406,1.877,1.877,0,0,0-.4-.37,2.126,2.126,0,0,0-.575-.267,2.794,2.794,0,0,0-.785-.1,2.791,2.791,0,0,0-1.044.181,1.932,1.932,0,0,0-.739.515,2.071,2.071,0,0,0-.443.806,3.661,3.661,0,0,0-.147,1.061,3.621,3.621,0,0,0,.147,1.046,2.234,2.234,0,0,0,.443.826,2.079,2.079,0,0,0,.752.542,2.687,2.687,0,0,0,1.066.2,2.454,2.454,0,0,0,.752-.111,2.417,2.417,0,0,0,.589-.289,2.15,2.15,0,0,0,.443-.409,2.849,2.849,0,0,0,.314-.464Z" transform="translate(-34.488 -13.696)" fill="#171c61"/>
      <path id="路径_25650" data-name="路径 25650" d="M-923.044,501.089l-1.65,2.893v2.124h-1.572v-2.124l-1.776-2.893h1.773l.924,1.654.887-1.654Z" transform="translate(-21.614 -13.732)" fill="#171c61"/>
      <path id="路径_25651" data-name="路径 25651" d="M-917.089,504.875v1.231h-3.186v-5.017h1.62v3.785Z" transform="translate(-24.083 -13.732)" fill="#171c61"/>
      <path id="路径_25652" data-name="路径 25652" d="M-932.487,504.284v1.821h-1.642v-5.017h2.251a3.42,3.42,0,0,1,1.282.184,1.518,1.518,0,0,1,.7.563,1.48,1.48,0,0,1,.257.849,1.442,1.442,0,0,1-.525,1.158,2.114,2.114,0,0,1-1.4.441Zm-.022-1.078h.539q.715,0,.716-.5c0-.315-.22-.469-.661-.469h-.594Z" transform="translate(-19.679 -13.732)" fill="#171c61"/>
      <path id="路径_25653" data-name="路径 25653" d="M-904.478,501.089v2.551l-1.661-2.551h-1.531v5.017h1.315v-2.985l1.877,2.985h1.316v-5.017Z" transform="translate(-28.09 -13.732)" fill="#171c61"/>
      <path id="路径_25654" data-name="路径 25654" d="M-931.1,476.535l1.3-1.3-2.659-2.177-1.155,1.159Z" transform="translate(-19.842 -4.823)" fill="#171c61"/>
      <path id="路径_25655" data-name="路径 25655" d="M-931.866,483.026l1.224-1.357-2.656-2.117-1.226,1.164Z" transform="translate(-19.554 -6.886)" fill="#171c61"/>
      <path id="路径_25656" data-name="路径 25656" d="M-917.487,473.362c-3.633.5-7.143.821-10.493.954v6.406a20.54,20.54,0,0,1-.35,4.429,8.251,8.251,0,0,1-1.5,3c.184.183,1.407,1.113,1.5,1.164a12.014,12.014,0,0,0,1.638-3.547,23.807,23.807,0,0,0,.41-5.179v-4.64q4.43-.263,9.342-.949Z" transform="translate(-21.047 -4.919)" fill="#171c61"/>
      <path id="路径_25657" data-name="路径 25657" d="M-917.4,484.6c.537-.277,1.494-.776,2.858-1.506l-.815-1.5c-.369.228-2.3,1.359-2.526,1.5-.134-.817-.269-1.743-.405-2.791.447-.046,3-.435,3.27-.482l-.611-1.566a55.343,55.343,0,0,1-7.158.959V487.8a1.749,1.749,0,0,1-.545,1.494l.95,1.437.615-.477s1.809-.883,2.836-1.359V487.2l-2.216,1.141v-7.7s1.348-.128,1.358-.136q.2,6.2,4.083,9.616c.464-.454.914-.917,1.372-1.372A9.374,9.374,0,0,1-917.4,484.6" transform="translate(-23.113 -6.474)" fill="#171c61"/>
      <path id="路径_25658" data-name="路径 25658" d="M-932.489,486.65c-.547,2.223-1.088,4.245-1.64,6.066l1.781.477c.222-.957.59-2.337,1.083-4.16.227-.946.391-1.591.485-1.9-.553-.138-1.122-.3-1.709-.48" transform="translate(-19.679 -9.142)" fill="#171c61"/>
      <path id="路径_25659" data-name="路径 25659" d="M-878.733,488.956c-.045.484-.1.911-.164,1.276-.046.509-.413.735-1.089.683h-1.43c-.681.051-1.022-.244-1.022-.879V488.8c2.216-.908,3.951-1.675,5.175-2.315l-.958-1.366a32.457,32.457,0,0,1-4.217,1.98v-2.25h-1.7v5.521a1.862,1.862,0,0,0,2.179,2.113h2.313a2.053,2.053,0,0,0,2.254-1.645s.224-1.388.269-1.887Z" transform="translate(-35.568 -8.571)" fill="#171c61"/>
      <path id="路径_25660" data-name="路径 25660" d="M-881.963,480.257h2.241c1.321,0,2.072-.543,2.253-1.637a10.78,10.78,0,0,0,.336-1.881h-1.628c-.045.365-.076.739-.137,1.129-.086.6-.48.866-1.157.819h-1.362c-.724.047-1.069-.271-1.021-.952v-.819q2.587-1.022,5.041-2.253l-.956-1.295a31.894,31.894,0,0,1-4.085,1.911v-2.525h-1.7v5.318a1.925,1.925,0,0,0,2.178,2.184" transform="translate(-35.568 -4.726)" fill="#171c61"/>
      <path id="路径_25661" data-name="路径 25661" d="M-893.005,474.746l1.162,1.5-3.812.134s2.935-3.269,3.066-3.407l-1.838-.614a16.576,16.576,0,0,1-2.454,3.208,3.507,3.507,0,0,1-1.162.956l.614,1.5.753-.142,5.93-.272.609.884,1.368-.948-3-3.549Z" transform="translate(-31.149 -4.601)" fill="#171c61"/>
      <path id="路径_25662" data-name="路径 25662" d="M-896.647,491.8h1.571v-3.131h3.881v1.019c0,.583-.8.527-.8.527h-1.163v1.465s1.7,0,1.84,0a1.537,1.537,0,0,0,1.7-1.787V482.05h-7.024Zm1.571-8.379h3.881v1.36h-3.881Zm0,2.586h3.881v1.364h-3.881Z" transform="translate(-31.593 -7.68)" fill="#171c61"/>
      <path id="路径_25663" data-name="路径 25663" d="M-819.773,479.929l-1.719.4v-2.935h1.709v-1.637h-1.709v-3h-1.7v3h-1.98v1.637h1.98v3.343c-.756.121-1.432.251-2.026.378v1.937l2.026-.475v3.751c.048.538-.2.795-.748.743h-.878v1.707h1.557a1.7,1.7,0,0,0,1.769-1.978v-4.7l1.719-.381Z" transform="translate(-54.297 -4.726)" fill="#171c61"/>
      <path id="路径_25664" data-name="路径 25664" d="M-810.784,485.408a12.949,12.949,0,0,0,3.132-4.7v-1.64h-3.613v-2.314h4.366v-1.64h-4.366v-2.453h-1.772v2.453h-3.954v1.64h3.954v2.314h-3.81v1.571h.331l.073.2a14.117,14.117,0,0,0,2.863,4.5,16.805,16.805,0,0,1-4.776,2.045c.055.089.889,1.383,1.022,1.568a25.631,25.631,0,0,0,5.124-2.388,25.878,25.878,0,0,0,4.694,2.25c.23-.5.529-1.061.886-1.7a13.122,13.122,0,0,1-4.154-1.7m-1.366-1.094a11.549,11.549,0,0,1-2.518-3.678h5.1a9.562,9.562,0,0,1-2.586,3.678" transform="translate(-56.478 -4.695)" fill="#171c61"/>
      <path id="路径_25665" data-name="路径 25665" d="M-846.054,477.32l-3.062-2.459-1.093,1.222,2.933,2.454Z" transform="translate(-46.354 -5.395)" fill="#171c61"/>
      <path id="路径_25666" data-name="路径 25666" d="M-847.294,483.374l-2.926-2.319-1.095,1.233,2.865,2.374Z" transform="translate(-46.002 -7.364)" fill="#171c61"/>
      <path id="路径_25667" data-name="路径 25667" d="M-842.168,482.618l-2.164.2V472.658h-1.84v10.3l-5.92.527v1.785l5.92-.545v4.16h1.84v-4.37l2.164-.188Z" transform="translate(-45.755 -4.695)" fill="#171c61"/>
      <path id="路径_25668" data-name="路径 25668" d="M-856.686,480.758l-.489.546v-1.843h2.249v-1.7h-2.249v-2.389l2-.215v-1.681c-1.349.208-3.264.385-5.757.513v1.654l1.992-.133v2.25H-861.4v1.7h2.322a19.34,19.34,0,0,1-2.523,4.914l.611,1.973a18.5,18.5,0,0,0,2.043-3.887v6.682h1.77v-6.751l1.571,1.437,1.158-1.228Z" transform="translate(-42.733 -4.955)" fill="#171c61"/>
    </g>
  </g>
</svg>
