<?xml version="1.0" encoding="UTF-8"?>
<!DOCTYPE svg PUBLIC "-//W3C//DTD SVG 1.1//EN" "http://www.w3.org/Graphics/SVG/1.1/DTD/svg11.dtd">
<!-- Creator: CorelDRAW 2020 (64-Bit) -->
<svg xmlns="http://www.w3.org/2000/svg" xml:space="preserve" width="310mm" height="40.051mm" version="1.1" style="shape-rendering:geometricPrecision; text-rendering:geometricPrecision; image-rendering:optimizeQuality; fill-rule:evenodd; clip-rule:evenodd"
viewBox="0 0 31000 4005.1"
 xmlns:xlink="http://www.w3.org/1999/xlink"
 xmlns:xodm="http://www.corel.com/coreldraw/odm/2003">
 <defs>
  <style type="text/css">
   <![CDATA[
    .fil0 {fill:#0028AA;fill-rule:nonzero}
    .fil1 {fill:#04CE19;fill-rule:nonzero}
   ]]>
  </style>
 </defs>
 <g id="图层_x0020_1">
  <metadata id="CorelCorpID_0Corel-Layer"/>
  <g id="_1918546341168">
   <polygon class="fil0" points="25126.06,6.18 24663.18,6.18 24663.18,218.37 23828.5,218.37 23828.5,660.19 24088.16,660.19 23837.74,1765.89 24301.36,1765.89 24551.74,660.19 24663.18,660.19 24663.18,1896.3 25126.06,1896.3 25126.06,660.19 25235.26,660.19 25487.67,1765.89 25951.38,1765.89 25698.85,660.19 25951.46,660.19 25951.46,218.37 25126.06,218.37 "/>
   <polygon class="fil0" points="21630.5,1765.93 22094.17,1765.93 22349.86,660.24 22463.95,660.24 22463.95,1896.22 22926.72,1896.22 22926.72,660.24 23144.73,660.24 23144.73,1765.93 23607.6,1765.93 23607.6,660.24 23754.49,660.24 23754.49,218.41 22926.72,218.41 22926.72,6.23 22463.95,6.23 22463.95,218.41 21631.52,218.41 21631.52,660.24 21886.28,660.24 "/>
   <path class="fil0" d="M24029.31 3227.65l1774.39 0 0 -418.49 -1774.39 0 0 -358.08 1373.34 0 -50.74 212.22 451.18 0 90.96 -383.67c16.72,-70.29 0.61,-143.22 -44.29,-199.95 -44.84,-56.77 -112.06,-89.36 -184.37,-89.36l-4034.82 0 0 460.76 1921.9 0 0 1108.95 -249.67 0c-170.84,0 -329.23,-99.4 -403.68,-253.12l-175.13 -365.81 169.1 -327.34 -545.88 0 -716.74 1397.37 545.89 0 270.96 -534.71 51.45 107.58c122.65,253.86 384.05,427.13 665.9,427.13l2786.72 0 0 -451.1 -1922.08 0 0 -332.38z"/>
   <path class="fil0" d="M29737.05 3560.01c-54.49,0 -98.9,-44.41 -98.9,-98.91l0 -370.31 1209.73 -321.28 0 -476.55 -1209.73 321.19 0 -532.56 -462.88 0 0 1446.02c0,266.6 216.97,483.6 483.64,483.6l1338.62 0 0 -451.2 -1260.48 0z"/>
   <path class="fil0" d="M29737.05 1484.6c-54.49,0 -98.9,-44.41 -98.9,-98.91l0 -370.32 1209.73 -321.27 0 -476.55 -1209.73 321.19 0 -532.58 -462.88 0 0 1446.04c0,266.59 216.97,483.6 483.64,483.6l1338.62 0 0 -451.2 -1260.48 0z"/>
   <path class="fil0" d="M27151.92 2654.37l1263.24 0 0 281.77 -1263.24 0 0 -281.77zm0 -758.04l1263.24 0 0 299.8 -1263.24 0 0 -299.8zm1552.76 -462.99l-1839.39 0c-98.31,0 -177.97,79.67 -177.97,177.87l0 2399.96 464.6 0 0 -612.32 1263.24 0 0 112.56c0,26.79 -21.78,48.57 -48.47,48.57l-334.03 0 0 451.19 551.3 0c165.04,0 298.7,-133.76 298.7,-298.68l0 -2101.28c0,-98.2 -79.7,-177.87 -177.98,-177.87z"/>
   <path class="fil0" d="M28716.52 217.49l-495.49 0 176.96 556 -1226.06 0 248.55 -767.29 -497.82 0 -280.64 856.95c-28.92,88.2 -14.46,181.83 39.94,257 54.5,75.3 138.94,118.37 231.83,118.37l1742.43 0c92.88,0 177.33,-43.07 231.82,-118.37 54.4,-75.17 68.87,-168.8 39.94,-257 -45.52,-138.36 -211.46,-645.66 -211.46,-645.66z"/>
   <polygon class="fil0" points="18557.92,1377.21 18008.24,1926.91 16637.34,555.83 17186.89,6.13 "/>
   <polygon class="fil0" points="20642.17,3461.53 20092.5,4011.23 18721.6,2640.15 19271.15,2090.47 "/>
   <polygon class="fil1" points="18008.3,2090.45 18557.97,2640.15 17186.95,4011.11 16637.28,3461.54 "/>
   <polygon class="fil1" points="20092.56,6.14 20642.23,555.84 19271.21,1926.8 18721.53,1377.22 "/>
   <path class="fil0" d="M5033.58 3105.38c-587.76,0 -1064,-476.65 -1064,-1064.46 0,-587.77 476.24,-1064.54 1064,-1064.54 587.75,0 1064.4,476.77 1064.4,1064.54 0,587.81 -476.65,1064.46 -1064.4,1064.46zm0 -2926.33c-1028.25,0 -1861.7,833.61 -1861.7,1861.87 0,1028.3 833.45,1870.36 1861.7,1870.36 1028.21,0 1861.69,-842.06 1861.69,-1870.36 0,-1028.26 -833.48,-1861.87 -1861.69,-1861.87z"/>
   <path class="fil0" d="M1859.13 3105.38c-587.75,0 -1064.4,-476.65 -1064.4,-1064.33 0,-587.81 476.65,-1064.45 1064.4,-1064.45 377.53,0 709.49,197.01 897.93,493.78l241.54 -901.46c-314.87,-244.4 -710.12,-389.65 -1139.47,-389.65 -1028.53,0 -1861.6,833.3 -1861.6,1861.78 0,1027.86 833.07,1870.23 1861.6,1870.23 429.35,0 824.6,-147.02 1138.95,-392.41l-242.63 -904.4c-189.18,295.02 -520.03,490.91 -896.32,490.91z"/>
   <path class="fil0" d="M12703.43 1702.47l0 2208.54 -813.93 0 0 -2169.84c0,-196.61 -79.53,-374.88 -208.8,-504.23 -129.46,-129.39 -306.73,-208.84 -504.23,-208.84 -394.22,0 -713.07,319.85 -713.07,713.07l0 2169.84 -807.9 0 0 -3674.47 807.9 0 0 121.26c213.83,-114.12 457.38,-178.3 716.01,-178.3 841.52,0 1524.02,681.5 1524.02,1522.97z"/>
   <path class="fil0" d="M9268.45 269.13l0 985.09c-65.2,-69.27 -143.62,-126.31 -232.17,-165.05 -87.69,-38.7 -185.48,-61.1 -288.27,-61.1 -393.29,0 -713.07,319.85 -713.07,713.06l0 2169.85 -806.75 0 0 -3674.45 806.75 0 0 121.23c212.8,-114.12 457.29,-178.27 716.02,-178.27 181.33,0 355.52,31.57 517.49,89.64z"/>
   <path class="fil0" d="M13946.41 1608.71c165.13,-363.67 531.74,-616.62 957.43,-616.62 425.9,0 793.04,252.95 958.55,616.62l-1915.98 0zm2794.36 767.2c18.87,-107.29 29.05,-218.03 29.05,-330.68 0,-1030.82 -835.1,-1865.98 -1865.98,-1865.98 -1030.27,0 -1865.85,835.16 -1865.85,1865.98 0,1030.31 835.58,1866.06 1865.85,1866.06 720.2,0 1344.52,-407.37 1655.72,-1004.64l-738.51 -344.85c-180.01,320.07 -523.3,536.15 -917.21,536.15 -465.52,0 -860.76,-302.54 -999.11,-722.04l2836.04 0z"/>
  </g>
 </g>
</svg>
