<svg xmlns="http://www.w3.org/2000/svg" xmlns:xlink="http://www.w3.org/1999/xlink" fill="none" version="1.1" width="220.0810546875" height="66.0166015625" viewBox="0 0 220.0810546875 66.0166015625"><g><g><g><path d="M23.385124,32.72908306552735L13.039549,31.141628265527345C12.406736,31.036761765527345,12.088522,30.751091465527345,12.088522,30.284618365527344Q12.088522,28.350021365527343,16.066198,28.350021365527343Q19.776287,28.350021365527343,19.776287,30.219529165527344C19.774044,30.359046465527342,19.753372,30.497656365527344,19.714813,30.631760565527344L30.111013,30.631760565527344C30.172068,30.264834865527344,30.203512,29.893593765527342,30.20503,29.521626965527343Q30.20503,23.207969665527344,17.132938,23.207969665527344Q4.0608449,23.207969665527344,2.4444635,30.664307165527344C2.3405311,31.163925165527345,2.287226,31.67274666552734,2.2853563,32.18305496552735Q2.2853563,36.280063665527344,7.2646847,37.03943666552735L17.165483,38.56180166552734C18.055037,38.68836266552734,18.496199,39.08974766552734,18.496199,39.765954665527346Q18.496199,41.93559666552734,14.51852,41.93559666552734C13.684861,41.97473566552735,12.850023,41.88942766552734,12.041514,41.68247266552734Q10.707184,41.23769566552734,10.956693,39.841893665527344L0.1916517,39.841893665527344C0.069306388,40.35130866552734,0.0050132759,40.872932665527344,0,41.39680666552734Q0,44.95140266552734,4.1259356,46.40867766552734Q7.1670504,47.45733666552734,13.007004,47.45733666552734Q20.4995,47.45733666552734,24.444632,45.47211466552734Q28.389763,43.48689266552734,29.286549,39.32479466552734C29.388943,38.849367665527346,29.442263,38.36468466552734,29.445656,37.87836866552735Q29.445656,33.62586866552734,23.385124,32.70738696552734" fill="#000000" fill-opacity="1" style="mix-blend-mode:passthrough"/></g><g><path d="M75.4637660456543,33.040061950683594Q70.9943027456543,33.5065353206836,66.2753305456543,34.16465995068359L63.6139030456543,46.64733195068359L86.4240720456543,46.64733195068359L87.72585904565429,40.557872250683594L73.8618430456543,40.557872250683594L75.4637660456543,33.040061950683594Z" fill="#000000" fill-opacity="1" style="mix-blend-mode:passthrough"/></g><g><path d="M77.38389803417968,24.003517150878906L68.43773893417969,24.003517150878906L66.69841003417969,32.1613702508789Q71.33059453417968,31.756370050878907,75.80005743417969,31.438156150878907L77.38389803417968,24.003517150878906Z" fill="#000000" fill-opacity="1" style="mix-blend-mode:passthrough"/></g><g><path d="M101.38375279091797,30.349719050878907L102.73615919091797,24.003517150878906L93.78638609091797,24.003517150878906L92.33995819091797,30.711328050878905C95.04116269091797,30.584766850878907,97.76406289091797,30.469052350878904,100.48334409091797,30.37503335087891L101.36566539091797,30.349720950878904" fill="#000000" fill-opacity="1" style="mix-blend-mode:passthrough"/></g><g><path d="M92.137464765625,31.752763931738283L88.955322265625,46.64735703173828L97.901475865625,46.64735703173828L101.177634265625,31.26459503173828C98.129289665625,31.39839060173828,95.120717065625,31.564729481738283,92.137459565625,31.74914709173828" fill="#000000" fill-opacity="1" style="mix-blend-mode:passthrough"/></g><g><path d="M117.42463348388672,24.003517150878906L107.20923598388671,24.003517150878906L105.88213348388672,30.226772750878908C110.79275128388672,30.096594350878906,115.66359808388671,29.998961450878905,120.46935848388672,29.970032650878906L117.42463348388672,24.003517150878906Z" fill="#000000" fill-opacity="1" style="mix-blend-mode:passthrough"/></g><g><path d="M125.16303412353516,30.73664093017578L123.92995212353516,36.55851313017578L123.83593212353516,36.55851313017578L120.87075012353516,30.751105541175782Q113.39272012353516,30.808963984175783,105.70133332353515,31.08016923017578L102.38541412353516,46.64734793017578L110.95188422353516,46.64734793017578L113.64946912353516,33.95856043017578L113.71094812353516,33.95856043017578L120.53445812353516,46.64734793017578L130.33763112353515,46.64734793017578L133.71141812353517,30.805347137175783Q129.47338512353517,30.73664093017578,125.16303412353516,30.73664093017578Z" fill="#000000" fill-opacity="1" style="mix-blend-mode:passthrough"/></g><g><path d="M135.1614636913086,24.003517150878906L126.5949930913086,24.003517150878906L125.3293685913086,29.970032650878906Q129.6324901913086,29.970032650878906,133.87775229130858,30.024274350878905L135.1614636913086,24.003517150878906Z" fill="#000000" fill-opacity="1" style="mix-blend-mode:passthrough"/></g><g><path d="M162.73399013476563,24.003517150878906L137.22262063476563,24.003517150878906L136.01846313476562,29.713291650878908L144.29926113476563,29.713291650878908L140.68319133476564,46.65458115087891L149.62935513476563,46.65458115087891L153.24542613476564,29.713291650878908L161.5262241347656,29.713291650878908L162.73399013476563,24.003517150878906Z" fill="#000000" fill-opacity="1" style="mix-blend-mode:passthrough"/></g><g><path d="M184.78118173535157,38.08811215087891L185.95640173535156,32.56998725087891L171.90074073535158,32.56998725087891L172.56609573535155,29.521640750878905L187.70297273535155,29.521640750878905L188.87457473535156,24.003517150878906L164.79516503535157,24.003517150878906L159.97132873535156,46.65458115087891L184.05434573535157,46.65458115087891L185.22595073535157,41.13645715087891L170.09270573535156,41.13645715087891L170.72551773535156,38.08811215087891L184.78118173535157,38.08811215087891Z" fill="#000000" fill-opacity="1" style="mix-blend-mode:passthrough"/></g><g><path d="M220.0812420908203,38.92340407470703L216.10356709082032,33.76688807470703L202.97723609082033,33.76688807470703L206.4450570908203,38.927018074707036L209.2258150908203,38.927018074707036C208.1192990908203,40.83992007470703,205.32408309082032,41.79456107470703,202.6698790908203,41.79456107470703Q197.12643819082032,41.79456107470703,197.12643819082032,37.303403074707035C197.1325072908203,36.64903807470703,197.2064227908203,35.99706907470703,197.3470124908203,35.35795907470703Q198.72111509082032,28.92858747470703,204.7129460908203,28.92858747470703C205.4981120908203,28.90296887470703,206.2824840908203,28.999337674707032,207.0380760908203,29.21425727470703C208.20751609082032,29.505806474707033,208.9997670908203,30.59365317470703,208.9184380908203,31.79613017470703L219.04343209082032,31.79613017470703Q219.07598909082031,31.28626347470703,219.07598909082031,30.80894277470703Q219.07598909082031,26.92166707470703,215.7636760908203,25.055773874707032Q212.4513660908203,23.18988050890703,205.4072470908203,23.19349735123433Q199.16590709082033,23.19349735123433,194.8953294908203,25.58371977470703Q189.3880397908203,28.66461277470703,187.9524706008203,35.43751307470703C187.7086551608203,36.51406707470703,187.58015931982032,37.613522074707035,187.5691680908203,38.71728807470703Q187.5691680908203,47.51518407470703,200.2832600908203,47.51157007470703C202.4364810908203,47.55619607470703,204.58709909082032,47.337614074707034,206.6873280908203,46.86067807470703C207.62224409082032,46.67065407470703,208.57598709082032,46.58935507470703,209.5295540908203,46.61840007470703C210.78793909082032,46.61840007470703,211.87999909082032,46.716036074707034,211.87999909082032,46.716036074707034L214.7403010908203,46.716036074707034L214.7403010908203,38.90894307470703L220.0812420908203,38.92340407470703Z" fill="#000000" fill-opacity="1" style="mix-blend-mode:passthrough"/></g><g><path d="M54.707523276611326,36.05587136259766C54.39380427661133,39.22959666259766,52.06581727661133,41.837182562597654,48.94782827661133,42.50732806259766C45.82984027661133,43.177473062597656,42.63603827661133,41.756674262597656,41.04601187661133,38.99212126259766Q36.26556677661133,40.16011286259766,31.868427276611328,41.40403886259766C32.497622726611326,43.64600086259766,33.994675376611326,45.26238566259766,36.37766697661133,46.245956662597656Q39.270523076611326,47.45010766259766,44.85012027661133,47.45010766259766Q51.225254276611324,47.45010766259766,54.97511527661133,45.80118066259766Q61.28877027661133,43.00957486259766,62.905155276611325,35.31457865259765C62.95578027661133,35.083150412597654,62.99194527661133,34.85533899259766,63.03171927661133,34.631141662597656C61.44426327661132,34.873417692597656,59.84596227661133,35.126544262597655,58.22234527661133,35.40859723259766C57.03627627661133,35.61471307259766,55.86828627661133,35.824445862597656,54.711137276611325,36.041409462597656" fill="#000000" fill-opacity="1" style="mix-blend-mode:passthrough"/></g><g><path d="M40.06243798322754,35.32903366357422C40.05310438322754,32.39624686357422,41.79286368322754,29.74022626357422,44.48514368322754,28.57706256357422C47.17742368322754,27.41390176357422,50.30387668322754,27.96753786357422,52.43301368322754,29.98448326357422C53.42622968322754,30.921369063574218,54.13978768322754,32.115641563574215,54.49417268322754,33.43421366357422C55.57899268322754,33.30403566357422,56.66381268322754,33.17747306357422,57.748634683227536,33.07260706357422C59.61452868322754,32.86287406357422,61.45149068322754,32.674839963574215,63.28122368322754,32.49765296357422Q63.54158068322754,26.53836946357422,58.47184768322754,24.433819563574218Q55.553684683227544,23.22966766357422,49.99939368322754,23.22966766357422Q43.62064668322754,23.22966766357422,39.87439818322754,24.878594563574218Q33.56074048322754,27.67381766357422,31.94435677322754,35.36519766357422C31.82502579322754,35.89314266357422,31.73824089022754,36.39939266357422,31.66953468322754,36.894795663574214Q35.78100728322754,36.171581663574216,40.07328038322754,35.47367966357422C40.07328038322754,35.43751966357422,40.07328038322754,35.40135966357422,40.07328038322754,35.36519766357422" fill="#000000" fill-opacity="1" style="mix-blend-mode:passthrough"/></g></g></g></svg>