<?xml version="1.0" standalone="no"?>
<!DOCTYPE svg PUBLIC "-//W3C//DTD SVG 20010904//EN"
 "http://www.w3.org/TR/2001/REC-SVG-20010904/DTD/svg10.dtd">
<svg version="1.0" xmlns="http://www.w3.org/2000/svg"
 width="1599.000000pt" height="672.000000pt" viewBox="0 0 1599.000000 672.000000"
 preserveAspectRatio="xMidYMid meet">

<defs>
<mask id="textMask">
  <rect x="-1000" y="-1000" width="18000" height="9000" fill="black"
        transform="translate(0.000000,672.000000) scale(0.100000,-0.100000)" />

  <g transform="translate(0.000000,672.000000) scale(0.100000,-0.100000)"
     fill="white" stroke="none">
    <path d="M4315 5515 c50 -12 120 -36 157 -53 l66 -30 -64 -179 c-87 -242 -84
-235 -103 -229 -9 3 -43 15 -76 28 -84 31 -226 31 -308 -1 -88 -34 -169 -115
-217 -215 -55 -116 -72 -202 -78 -398 l-5 -168 232 0 231 0 0 -199 0 -198 -37
-7 c-21 -3 -125 -6 -230 -6 l-193 0 0 -154 0 -154 38 9 c359 85 498 129 664
213 l103 51 2 40 c34 537 210 1120 418 1382 168 214 402 310 645 268 521 -89
658 -687 286 -1244 -162 -243 -437 -495 -748 -688 -68 -42 -125 -77 -127 -79
-8 -7 19 -189 39 -269 82 -322 301 -441 567 -310 164 81 264 255 313 545 26
155 52 245 98 335 134 268 341 425 642 487 122 26 314 21 435 -11 108 -28 265
-108 348 -176 139 -115 252 -294 305 -483 25 -90 27 -111 26 -277 0 -166 -2
-187 -27 -268 -83 -269 -262 -479 -503 -588 -365 -166 -820 -78 -1086 211 -36
38 -68 70 -70 70 -3 0 -25 -25 -49 -56 -93 -118 -279 -237 -439 -281 -93 -25
-320 -25 -410 1 -335 95 -557 370 -635 786 -10 52 -19 96 -20 97 -1 2 -38 -13
-82 -31 -113 -48 -242 -88 -455 -141 -100 -26 -207 -53 -235 -61 l-53 -15 0
-72 c0 -94 -16 -268 -41 -442 -101 -711 -400 -1096 -853 -1095 -180 0 -322 56
-441 173 -136 135 -194 320 -166 530 38 288 162 529 396 775 152 161 357 312
530 393 l85 40 0 244 0 244 -152 3 -153 3 -3 203 -2 202 153 0 154 0 6 203
c11 351 72 557 226 750 214 269 550 379 896 292z m4937 -1220 c227 -47 396
-205 479 -449 56 -162 59 -208 59 -833 l0 -573 -250 0 -249 0 -3 568 c-3 557
-4 568 -26 632 -33 98 -78 152 -159 192 -61 30 -76 33 -153 33 -102 -1 -166
-20 -234 -73 -58 -43 -105 -109 -138 -190 -23 -57 -23 -58 -26 -609 l-3 -553
-254 0 -255 0 0 920 0 920 240 0 240 0 0 -107 0 -107 43 40 c92 89 209 153
334 183 97 24 254 27 355 6z m1978 -10 c116 -30 257 -106 339 -181 69 -64 171
-194 171 -218 0 -6 -82 -62 -182 -125 l-182 -114 -25 34 c-96 126 -194 186
-322 196 -220 16 -394 -117 -454 -346 -55 -213 -8 -447 115 -570 27 -27 80
-64 117 -83 65 -32 72 -33 183 -33 106 0 120 2 172 28 68 34 144 100 178 156
14 22 30 40 36 38 25 -5 384 -201 384 -209 0 -19 -87 -137 -149 -202 -164
-172 -358 -249 -626 -248 -163 0 -284 29 -430 101 -223 112 -384 306 -462 558
-25 83 -27 100 -27 278 0 211 11 272 77 424 115 266 353 458 647 522 107 24
339 20 440 -6z m1843 -4 c266 -71 490 -257 598 -499 171 -381 104 -816 -170
-1106 -268 -282 -739 -353 -1112 -166 -332 165 -525 533 -488 930 33 352 210
624 504 772 59 30 196 75 269 88 87 15 311 5 399 -19z m-1107 -2186 c49 -9
186 -40 304 -69 245 -62 339 -80 495 -97 243 -26 559 15 742 97 29 12 53 21
53 19 0 -7 -127 -83 -199 -120 -101 -50 -286 -110 -406 -130 -121 -21 -364
-24 -485 -6 -112 17 -306 67 -515 134 -222 71 -333 91 -512 92 -77 0 -136 3
-130 7 24 15 140 50 225 68 110 24 307 26 428 5z m-355 -214 c58 -11 170 -42
250 -67 370 -118 495 -144 707 -145 l137 0 -72 -29 c-40 -16 -119 -39 -175
-51 -87 -18 -125 -20 -243 -16 -154 6 -221 19 -510 96 -315 85 -386 96 -635
95 -237 0 -323 -13 -505 -74 -78 -26 -87 -27 -65 -10 47 39 285 149 375 175
158 45 234 54 440 51 146 -2 215 -8 296 -25z"/>
  </g>

  <g transform="translate(0.000000,672.000000) scale(0.100000,-0.100000)"
     fill="black" stroke="none">
    <path d="M5359 5040 c-106 -56 -215 -265 -289 -555 -34 -135 -86 -413 -78
-420 6 -6 159 112 238 184 318 288 466 678 301 788 -43 29 -120 30 -172 3z"/>
    <path d="M6716 3870 c-243 -62 -383 -349 -320 -658 32 -160 115 -277 239 -338
56 -27 68 -29 180 -29 116 0 123 1 186 32 213 105 306 380 227 676 -36 137
-114 233 -236 290 -52 24 -79 30 -150 33 -48 2 -104 -1 -126 -6z"/>
    <path d="M3119 2803 c-140 -102 -299 -275 -380 -415 -52 -89 -98 -214 -105
-286 -11 -107 55 -182 160 -182 188 0 324 247 375 680 15 127 24 250 18 250
-3 0 -33 -21 -68 -47z"/>
    <path d="M12725 3866 c-148 -37 -258 -154 -311 -331 -25 -83 -25 -277 0 -359
70 -233 224 -348 444 -334 109 7 180 37 256 108 113 106 163 248 153 435 -19
349 -249 553 -542 481z"/>
  </g>
</mask>
</defs>

<rect x="0" y="0" width="1599" height="672" fill="#FFFFFF" mask="url(#textMask)" />

</svg>
